<svg width="167" height="40" viewBox="0 0 167 40" fill="none" xmlns="http://www.w3.org/2000/svg">
<g clip-path="url(#clip0_1_2816)">
<path d="M39.1717 38.8866V11.731H51.7788C53.537 11.731 55.1219 12.0815 56.5334 12.7824C57.9495 13.4788 59.0684 14.4807 59.8924 15.7927C60.7208 17.1001 61.1352 18.6817 61.1352 20.5373C61.1352 22.3704 60.7208 23.9497 59.8924 25.2729C59.0684 26.5915 57.9495 27.6002 56.5334 28.3011C55.1219 29.002 53.537 29.3526 51.7788 29.3526H46.817V38.8866H39.1717ZM50.2929 17.2215H46.817V23.8531H50.2929C51.1575 23.8531 51.9183 23.5746 52.5803 23.0175C53.2466 22.4602 53.5799 21.6335 53.5799 20.5373C53.5799 19.4186 53.2466 18.5851 52.5803 18.0392C51.9183 17.4955 51.1575 17.2215 50.2929 17.2215Z" fill="#102317"/>
<path d="M70.3017 38.8866V18.2098H62.1701V11.731H86.1236V18.2098H77.947V38.8866H70.3017Z" fill="#102317"/>
<path d="M88.9802 38.8866V11.731H96.6255V38.8866H88.9802Z" fill="#102317"/>
<path d="M101.126 38.8866V11.731H106.664L115.57 24.7697L124.467 11.731H130.005V38.8866H122.441V26.1446L118.011 32.4797H113.121L108.69 26.0726V38.8866H101.126Z" fill="#102317"/>
<path d="M134.509 38.8866V11.731H142.155V38.8866H134.509Z" fill="#102317"/>
<path d="M154.909 39.3449C152.59 39.3449 150.571 39.008 148.848 38.3385C147.131 37.6622 145.546 36.5862 144.094 35.1125L148.876 30.3409C149.866 31.2822 150.906 32.0011 152 32.4976C153.099 32.9963 154.272 33.2434 155.521 33.2434C156.566 33.2434 157.354 33.0862 157.89 32.7671C158.423 32.4503 158.691 32.0102 158.691 31.4462C158.691 30.788 158.385 30.26 157.772 29.8647C157.16 29.4692 156.377 29.1076 155.422 28.7774C154.468 28.4494 153.45 28.0742 152.369 27.6542C151.289 27.2363 150.267 26.7083 149.308 26.0725C148.353 25.4391 147.57 24.6123 146.957 23.5925C146.349 22.5749 146.048 21.2898 146.048 19.7374C146.048 17.983 146.467 16.4711 147.309 15.1996C148.148 13.9303 149.33 12.9598 150.857 12.2881C152.387 11.6119 154.182 11.2727 156.241 11.2727C158.281 11.2727 160.172 11.5962 161.915 12.2432C163.662 12.8902 165.107 13.8135 166.255 15.0109L161.437 19.7734C160.595 18.9602 159.756 18.3582 158.916 17.9673C158.074 17.5719 157.16 17.3742 156.17 17.3742C155.377 17.3742 154.742 17.5045 154.269 17.7606C153.801 18.0122 153.567 18.3942 153.567 18.9018C153.567 19.5129 153.873 20.0116 154.486 20.3934C155.098 20.7709 155.881 21.1191 156.836 21.4358C157.79 21.7549 158.808 22.1165 159.889 22.5231C160.974 22.932 161.996 23.4576 162.95 24.1047C163.905 24.7516 164.688 25.5963 165.301 26.6387C165.913 27.6811 166.219 29.0178 166.219 30.6465C166.219 33.4209 165.231 35.5663 163.257 37.0803C161.28 38.59 158.497 39.3449 154.909 39.3449Z" fill="#102317"/>
<mask id="mask0_1_2816" style="mask-type:luminance" maskUnits="userSpaceOnUse" x="0" y="0" width="39" height="40">
<path d="M0 0H38.263V19.7158C38.263 30.9185 29.1622 40 17.9358 40C8.03013 40 0 31.9869 0 22.1022V0Z" fill="white"/>
</mask>
<g mask="url(#mask0_1_2816)">
<path d="M12.3691 4.52255C12.9803 6.55019 13.2718 6.56686 11.7838 8.274C11.3399 8.7833 10.9436 9.09506 10.4098 8.64924C10.656 9.22753 10.9514 9.52104 11.2328 10.0002C11.8822 8.76664 12.82 7.79328 13.9079 6.95795C14.0611 6.84055 14.1783 6.71837 14.2049 6.52164C13.6274 5.82275 13.128 5.0501 12.3691 4.52255ZM8.46779 4.59553C8.37088 4.27188 8.15519 4.11004 7.84258 4.24728C7.54403 4.37897 7.43775 4.66059 7.36116 4.99059C7.00245 6.53513 7.27051 8.01699 7.73161 9.48615C7.84336 9.84233 7.98482 10.1898 8.0739 10.5515C8.13095 10.7824 8.21927 11.0727 7.95746 11.233C7.64406 11.4249 7.56202 11.0426 7.36742 10.9339C7.44322 11.1814 7.51904 11.4281 7.59483 11.6748C8.04264 11.6447 8.47326 11.5527 8.85855 11.3044C8.03717 9.65751 7.70033 7.88768 7.6175 6.06391C7.58858 5.42135 7.51904 4.68675 8.46779 4.59553ZM30.4025 7.56004C29.8907 7.6354 29.6305 8.31684 29.4139 8.65717C28.8847 9.48773 28.4739 9.5639 27.4969 9.15851C26.9107 8.91579 26.3989 8.57546 25.7971 8.37159C25.7377 8.37079 25.5158 8.67144 25.476 8.71666C25.4595 8.98084 25.5174 9.20215 25.7931 9.30688C26.8874 9.72017 27.9806 10.1351 29.074 10.5499C29.421 9.76935 29.8626 8.77615 30.4025 7.56004ZM33.2083 12.0445C33.0496 12.1238 32.8808 12.1889 32.7338 12.2865C32.5408 12.4157 32.3539 12.4776 32.1548 12.3253C31.9618 12.177 31.9531 11.9779 32.0008 11.7502C32.1189 11.1893 32.3125 10.6404 32.2672 10.0541C31.9226 10.5055 31.8414 11.0704 31.6295 11.5788C31.513 11.8589 31.4671 12.2198 31.0207 12.0104C31.4897 12.5022 32.0595 12.8513 32.6416 13.1829C32.8628 12.8203 33.1246 12.4776 33.2083 12.0445Z" fill="#398453"/>
<path d="M22.7825 27.1368C22.3607 27.1549 22.1723 26.7544 22.2169 26.3348C22.2707 25.8699 22.4686 25.4962 22.9804 25.4146C23.3845 25.5146 23.5283 25.8064 23.5009 26.1889C23.4743 26.6537 23.2586 27.1098 22.7825 27.1368ZM23.9144 24.4937C23.8697 24.2293 23.8063 23.9646 23.7079 23.7002C23.6542 23.536 23.582 23.3813 23.4924 23.2449C23.4109 23.1077 23.3125 22.98 23.1961 22.8711C22.9711 22.6524 22.7022 22.4968 22.3607 22.4333C21.723 22.3057 21.2376 22.5977 20.8429 23.0529C20.7976 23.0989 20.7529 23.1624 20.7085 23.2171C20.421 23.5908 20.2233 23.9922 20.0888 24.4119C20.0254 24.6213 19.9809 24.8402 19.945 25.0679C19.9177 25.2869 19.8997 25.5146 19.8997 25.742C19.8997 26.1071 19.945 26.4529 20.0254 26.7726C20.2858 27.7389 20.8788 28.4226 21.6066 28.5228C22.3427 28.614 23.1149 27.9848 23.5642 27.0457C23.6361 26.9004 23.6986 26.7449 23.7526 26.5902C23.8063 26.426 23.8517 26.2619 23.887 26.0888C23.9144 25.9429 23.9408 25.7882 23.9503 25.6422V25.6328C23.9681 25.4415 23.9752 25.252 23.969 25.0624C23.9636 24.8711 23.9455 24.6817 23.9144 24.4937ZM11.961 24.0286C11.9251 24.3293 11.8446 24.6942 11.5031 24.7211H11.4577C11.4046 24.7211 11.3506 24.7031 11.3233 24.676C11.1975 24.5848 11.1975 24.3475 11.1709 24.1748C11.1889 24.1017 11.2068 24.0191 11.2248 23.9373C11.2428 23.8557 11.2608 23.7828 11.2873 23.7186C11.3233 23.6549 11.3592 23.6004 11.4132 23.5544C11.4757 23.5091 11.5476 23.4813 11.6375 23.4813C11.7367 23.4813 11.8086 23.5091 11.8532 23.5544C11.8711 23.5638 11.8805 23.5726 11.8891 23.5908C11.8985 23.6089 11.9071 23.6186 11.9071 23.6273C11.9165 23.6455 11.9251 23.6549 11.9337 23.6733C11.943 23.6915 11.943 23.7098 11.943 23.728C11.961 23.7731 11.9704 23.8375 11.9704 23.9009C11.9704 23.9462 11.961 23.9922 11.961 24.0286ZM11.4038 21.4895C10.9599 21.4077 9.82356 21.8417 9.82356 23.8464C9.87748 24.6579 9.87904 25.7684 10.8294 25.7788C11.7226 25.7891 11.986 25.0775 12.2205 24.3673C12.4792 23.5828 12.2666 21.6473 11.4038 21.4895Z" fill="#398453"/>
<path d="M28.8115 22.78C28.7098 22.5547 28.4988 22.342 28.3815 22.1304C28.2027 21.8122 28.0142 21.5013 27.8157 21.1831C27.6266 20.8722 27.4384 20.5613 27.2664 20.2534C27.2398 20.2162 27.2225 20.178 27.2125 20.1438C27.1523 20.0344 27.0882 19.9251 27.0445 19.806C26.9803 19.6862 26.9264 19.5593 26.8827 19.4333C26.8287 19.3133 26.7921 19.1936 26.7546 19.0776C26.7482 19.0674 26.7482 19.05 26.7482 19.0293C26.7005 18.9134 26.6669 18.7834 26.6467 18.6469C26.6201 18.5202 26.5935 18.3836 26.5864 18.2471C26.566 18.1099 26.5591 17.9735 26.5591 17.8268C26.5591 17.6285 26.5762 17.4166 26.6028 17.208C26.5864 17.2897 26.566 17.3721 26.5389 17.4436C26.4949 17.5633 26.4521 17.6832 26.3973 17.7823C26.3607 17.864 26.3169 17.9465 26.263 18.0283C26.101 18.3122 25.9128 18.5644 25.751 18.8382C25.7042 18.9207 25.6502 19.0127 25.6065 19.1047C25.579 19.1491 25.5626 19.1873 25.5422 19.242C25.5355 19.2524 25.5322 19.2618 25.5291 19.2729C23.9528 19.5767 22.2117 19.4053 21.387 19.054C21.0902 18.9271 20.8344 18.7256 20.6422 18.4724C20.4507 18.2234 20.3226 17.922 20.2756 17.5974C20.2484 17.3412 20.2351 17.1699 20.2351 17.1699C16.4049 20.984 11.5743 19.9251 9.43374 19.242C9.47048 19.2071 9.49314 19.1856 9.49314 19.1856C9.53691 19.142 9.37983 19.0714 9.37983 19.0714C9.37278 19.0731 9.32354 19.0151 9.31651 19.0167L9.27588 18.9651C9.23758 18.9771 9.1524 18.9531 9.11488 18.966C9.0336 18.9865 8.95545 19.0167 8.87731 19.0484C8.4717 18.8945 8.22396 18.7716 8.18489 18.7493C8.28882 18.8945 8.43889 19.0373 8.61941 19.1745C8.05279 19.4991 7.62532 20.4151 7.33381 20.9349C7.25802 20.9873 6.0576 23.7971 6.6703 28.0418C6.6914 28.7114 7.6761 30.7669 7.65814 30.6844C7.64954 30.6573 5.92865 24.8314 8.20207 20.7738C8.24584 20.696 8.34744 20.5738 8.47482 20.4351C8.80149 20.0789 9.33293 19.798 9.77215 19.994C14.2486 21.8598 18.3812 19.3094 18.4603 19.2507C18.5018 19.2196 19.9826 18.1067 19.9992 18.1067C20.0265 18.1274 20.3665 19.0054 20.7735 19.2658C21.4207 19.6727 22.6094 19.8813 23.3432 19.9733C23.9293 20.048 25.0821 19.9836 25.2736 19.9631C25.6869 19.9194 26.0988 19.8942 26.4082 20.1758C27.2946 20.9824 27.9518 22.1771 27.772 23.3162C27.7243 23.5796 27.0388 27.2716 27.0288 27.4089C27.1906 27.4634 27.6751 26.5211 27.7829 26.2753C27.7993 26.2482 28.0736 24.6562 28.0807 24.6387C28.4675 24.1191 28.7231 23.4393 28.9553 23.1284C28.9115 23.0084 28.8645 22.8894 28.8115 22.78Z" fill="#398453"/>
<path d="M18.5406 37.3518C18.3139 37.8207 18.35 38.2689 18.4969 38.7513C18.7658 39.6778 18.289 40.1347 17.3519 39.8873C17.1245 39.8349 15.8483 38.9044 15.2864 38.8409C14.7237 38.7775 13.3701 39.4802 12.8066 39.4573C12.7019 39.4533 11.4374 39.1891 12.544 37.9493C12.5612 37.6485 11.8751 36.6253 12.7793 36.4262C13.2505 36.3222 14.5963 37.2685 15.3403 37.3749C16.2492 37.5051 16.8408 37.236 17.6872 36.8798C17.8318 36.818 18.0022 36.81 18.1585 36.81C18.5235 36.8085 18.7328 36.956 18.5406 37.3518Z" fill="#398453"/>
<path d="M17.0191 30.2456C16.9386 30.3369 16.8574 30.428 16.7675 30.5096C15.4116 31.814 13.6422 31.5855 13.0319 29.9449C12.9513 29.6991 12.9154 29.5437 13.0053 29.4342C13.0139 29.4158 13.0319 29.4071 13.0498 29.3889C13.1217 29.3342 13.2296 29.2976 13.382 29.2613C16.0665 28.8098 15.5733 27.3009 15.5014 26.9275C14.8762 26.4727 14.1401 26.26 13.4273 25.9946C13.1577 25.9618 12.8998 25.9309 12.6302 25.8984C12.3722 25.9206 12.112 25.9007 11.8643 25.9342C10.885 26.0524 10.642 26.3086 10.871 27.6635C11.0437 28.69 12.5379 28.8875 12.2777 29.7166C12.1159 30.2273 11.6939 30.6653 11.0648 30.4464C10.3645 30.2004 10.1668 29.6529 10.3739 28.9424H9.77215C9.80731 29.8537 10.1019 30.306 10.388 30.5304C10.7334 30.8017 11.0538 31.1064 11.243 31.5062C11.6415 32.3518 12.4887 33.5918 14.0799 33.8171L13.5258 32.8866C14.6238 32.2702 15.8492 32.2327 17.109 32.3327C17.4771 31.6855 17.3247 30.9747 17.3786 30.2909C17.2888 30.0178 17.145 30.2093 17.0191 30.2456Z" fill="#398453"/>
<path d="M17.1088 32.3327C16.4172 33.8098 14.132 34.3296 12.7159 33.2991C13.9554 32.2963 15.6185 32.2145 17.1088 32.3327Z" fill="#398453"/>
<path d="M25.8938 29.7427C25.8485 29.788 25.8126 29.834 25.7681 29.8705C25.5797 30.0704 25.382 30.2622 25.1663 30.4265C24.2589 31.1554 22.005 31.6473 21.7893 32.1313C20.4787 33.0698 20.7835 35.0664 20.0833 35.176C19.8496 35.2211 19.616 35.3027 19.3736 35.3576C17.4965 35.7867 15.5575 36.0993 13.7163 35.5862C5.91444 33.4093 6.5412 25.2383 6.54978 25.248C6.7272 21.2133 7.69707 20.2096 8.44107 19.5331C8.75679 19.2458 9.20852 19.1667 9.6063 19.3158C11.0912 19.8734 15.9968 21.3925 20.2357 17.1716C20.2357 17.1716 20.2364 17.1755 20.2364 17.1818C20.2411 18.1195 20.6795 18.8564 21.5408 19.1634C22.4615 19.4918 24.0073 19.7829 25.4804 19.3871C26.7449 19.1634 27.6272 20.8731 27.8157 21.1824C27.8179 21.1856 27.8196 21.1894 27.8218 21.1927C28.4892 22.2834 28.5293 23.6567 27.9469 24.7973C27.6038 25.4685 26.7559 28.794 25.8938 29.7427ZM11.8031 38.1474C11.7945 38.1474 11.7852 38.1563 11.7766 38.1563C11.7852 38.1474 11.7945 38.138 11.8031 38.138V38.1474ZM33.6638 23.8787C33.6629 23.8787 34.8273 20.4913 34.8454 20.1669C34.8461 20.1654 34.8468 20.1629 34.8477 20.1614V20.1525C34.8477 20.1431 34.8561 20.1345 34.8561 20.1249C35.1619 17.7457 34.5147 15.6492 33.0339 13.7984C32.8807 13.6168 32.7728 13.3883 32.6471 13.1789C32.0631 12.8505 31.4974 12.5046 31.0214 12.012C30.4923 11.3646 29.6389 11.1552 29.0817 10.5444C27.9859 10.1342 26.8911 9.71459 25.7947 9.30446C25.5165 9.20451 25.4624 8.97682 25.4804 8.71188C23.9361 6.24159 21.709 5.05641 18.8438 5.13891C17.5059 5.17541 16.2484 5.58553 15.0542 6.18684C14.7846 6.32408 14.5424 6.54302 14.2102 6.52477C14.1829 6.71595 14.0664 6.84368 13.9132 6.95315C12.8269 7.79166 11.8844 8.76661 11.2373 9.99779C10.8513 11.1917 9.90876 11.3377 8.86699 11.3012C8.48013 11.5471 8.04953 11.6383 7.60014 11.6748C6.35207 12.3586 5.13057 13.0607 4.40297 14.3823C3.46907 16.0775 3.62146 16.7708 5.29233 17.7554C4.48426 18.6122 3.72071 19.4871 3.46047 20.6905C3.37918 21.0554 3.31667 21.4194 3.31667 21.7931C3.31667 23.0147 3.52298 23.2702 4.69057 23.4527C4.03488 24.9022 3.37058 26.3427 3.28072 27.9649C3.20022 29.688 3.2901 31.3198 5.22904 32.0305C5.52601 32.14 5.49866 32.3954 5.54398 32.6502C5.93005 34.9838 7.1875 36.3151 9.54926 36.7885C10.0971 36.8894 9.98143 37.6914 9.7837 38.138C9.50706 38.8013 8.85526 39.0233 8.59736 39.6929C8.24022 40.6185 8.83729 41.6714 8.07453 42.294C6.99371 43.1769 7.43916 44.1734 7.14219 45.1214C6.99839 45.5767 6.74673 45.832 6.31612 46.0329C5.84879 46.2422 5.36423 46.4247 4.89689 46.6438C8.93811 49.0314 13.635 50.3991 18.6556 50.3991C21.9692 50.3991 25.1397 49.8065 28.0759 48.7125C27.8781 48.6031 27.6632 48.5214 27.4475 48.4485C26.4722 48.1334 25.8031 47.3371 25.4657 46.6191C25.1867 46.0273 25.1616 45.5625 25.1217 44.8294C25.067 43.8624 25.6805 43.308 25.7883 42.3631C25.8938 41.4365 25.0974 40.2507 25.2913 39.3351C25.3891 38.8758 25.8853 38.2864 25.9924 37.8278C26.1276 37.2447 26.4503 37.3909 26.8098 37.3994C28.4269 37.4454 29.238 35.6844 29.4787 34.3167C32.2929 34.2438 33.631 31.9393 34.217 30.5471C34.8197 29.116 35.0024 26.2856 33.6638 23.8787Z" fill="#398453"/>
<path d="M10.8499 2.96216C8.91482 0.944824 7.28926 1.33036 6.57028 4.03785C5.97788 6.27174 6.22092 8.46121 7.21111 10.5547L7.36898 10.9363L7.36743 10.9339C7.562 11.0426 7.64407 11.4241 7.95746 11.233C8.21927 11.0727 8.13096 10.7824 8.07391 10.5515C7.98481 10.1906 7.84335 9.84232 7.7316 9.48614C7.27049 8.01698 7.00245 6.53512 7.36116 4.99058C7.43774 4.66058 7.54404 4.37896 7.84256 4.24727C8.15519 4.11003 8.37088 4.27187 8.46778 4.59552L8.46935 4.56141C8.53188 4.65265 9.39232 6.0885 9.39622 6.25985L9.75886 7.18403C9.98157 7.84641 10.6584 9.13947 10.6584 9.13947C10.7217 9.20294 11.3399 8.78329 11.7838 8.274C13.2718 6.56605 13.1874 6.28285 13.0678 5.13498C13.0678 5.13498 10.8694 2.98198 10.8499 2.96216ZM33.2083 12.0445C34.4032 9.62972 34.8104 7.09516 34.3195 4.42894C34.2632 4.1243 34.1719 3.82209 34.0615 3.5333C33.2356 1.36764 32.1141 1.08127 30.4087 2.63849C28.5012 4.38134 27.1053 6.13212 25.7971 8.37158C26.3989 8.57545 26.9107 8.91578 27.4969 9.1593C28.4739 9.56389 29.2107 9.72094 29.7398 8.8896C29.9563 8.54927 30.0736 8.30176 30.4027 7.56003C30.8746 6.7953 31.1637 5.91952 31.7592 5.22936C31.9884 4.96441 32.2666 4.72325 32.6321 4.80734C33.0113 4.8938 32.9707 5.30076 33.0151 5.57683C33.1168 6.19399 33.0793 6.8191 32.9229 7.43312C32.701 8.30574 32.4853 9.17994 32.2674 10.0533C32.3126 10.6404 32.1187 11.1893 32.0008 11.7502C31.9531 11.9778 31.9616 12.177 32.1548 12.3253C32.3541 12.4776 32.5409 12.4157 32.7338 12.2865C32.8807 12.1889 33.0496 12.1238 33.2083 12.0445Z" fill="#398453"/>
<path d="M21.9387 29.542C19.6754 29.542 17.8342 27.6984 17.8342 25.4431C17.8342 23.1869 19.6754 21.3433 21.9387 21.3433C24.2021 21.3433 26.0423 23.1869 26.0423 25.4431C26.0423 27.6984 24.2021 29.542 21.9387 29.542ZM26.6715 25.4431C26.6715 22.8291 24.5428 20.7017 21.9387 20.7017C19.3254 20.7017 17.2059 22.8291 17.2059 25.4431C17.2059 28.0562 19.3254 30.1838 21.9387 30.1838C23.1227 30.1838 24.2159 29.7442 25.0422 29.0128C25.2711 30.4266 25.5023 34.0931 22.4106 36.6411C19.6818 38.7402 16.9995 38.948 16.9237 38.9568C16.8807 38.9671 12.6285 40.0222 12.0627 45.0809L12.6871 45.1538C13.2014 40.556 16.9073 39.62 17.0144 39.5906C17.1316 39.5826 19.902 39.3731 22.7976 37.1473C26.5458 34.0582 25.8016 29.4809 25.5774 28.4577C26.259 27.6413 26.6715 26.5878 26.6715 25.4431Z" fill="#398453"/>
</g>
</g>
<defs>
<clipPath id="clip0_1_2816">
<rect width="166.353" height="40" fill="white"/>
</clipPath>
</defs>
</svg>
